# xmcd
#
# Track frame offsets:
#	150
#	23977
#	46467
#	65772
#	88357
#	111065
#	127280
#	148532
#	171562
#	195267
#
# Disc length: 2885 seconds
#
# Revision: 1
# Processed by: cddbd v1.5.1PL0 Copyright (c) Steve Scherf et al.
# Submitted via: CDex 1.50Beta5
#
DISCID=990b430a
DTITLE=井上 睦都実 - 幸せなデニム
DYEAR=1900
DGENRE=Pop
TTITLE0=泣いて笑って
TTITLE1=ランデヴー
TTITLE2=love letter
TTITLE3=眠れぬ森
TTITLE4=いけない好奇心
TTITLE5=ガールフレンズ
TTITLE6=似たもの同志
TTITLE7=はなれてみよう
TTITLE8=嫌いになるまで
TTITLE9=ホントの私の事
EXTD=
EXTT0=
EXTT1=
EXTT2=
EXTT3=
EXTT4=
EXTT5=
EXTT6=
EXTT7=
EXTT8=
EXTT9=
PLAYORDER=
